<svg width="57" height="25" viewBox="0 0 57 25" fill="none" xmlns="http://www.w3.org/2000/svg">
<path d="M5.55612 1.27593H12.0134C18.0311 1.27593 22.9094 6.15425 22.9094 12.172V13.4875C22.9094 19.5052 18.0311 24.3835 12.0134 24.3835H6.55613C3.55239 24.3835 1.11738 21.9485 1.11738 18.9448V5.71468C1.11738 3.26323 3.10467 1.27593 5.55612 1.27593Z" stroke="white" stroke-width="1.12252"/>
<path d="M28.7869 11.1827V2.5032H31.366C32.6225 2.5032 33.6599 2.88758 34.4782 3.65634C35.3049 4.4251 35.7182 5.4873 35.7182 6.84296C35.7182 8.19862 35.3049 9.26083 34.4782 10.0296C33.6599 10.7983 32.6225 11.1827 31.366 11.1827H28.7869ZM29.9029 10.166H31.3288C32.2464 10.166 33.011 9.88906 33.6227 9.33523C34.2426 8.78139 34.5526 7.95064 34.5526 6.84296C34.5526 6.09074 34.3956 5.45837 34.0815 4.94587C33.7756 4.4251 33.3871 4.05725 32.9159 3.84233C32.4447 3.61914 31.9157 3.50755 31.3288 3.50755H29.9029V10.166Z" fill="white"/>
<path d="M39.1518 4.83427C39.9206 4.83427 40.5405 5.04506 41.0117 5.46664C41.4829 5.88822 41.7185 6.45858 41.7185 7.17775V11.1827H40.6769V10.1164C40.4951 10.4718 40.214 10.757 39.8338 10.9719C39.4618 11.1786 39.0485 11.2819 38.5938 11.2819C37.9739 11.2819 37.4655 11.1125 37.0687 10.7736C36.6802 10.4264 36.4859 9.97999 36.4859 9.43442C36.4859 8.26062 37.4779 7.57452 39.4618 7.37614L40.6769 7.23974V7.11575C40.6769 6.68591 40.5364 6.34699 40.2553 6.099C39.9826 5.84275 39.6147 5.71463 39.1518 5.71463C38.722 5.71463 38.3665 5.83449 38.0855 6.07421C37.8044 6.31393 37.6432 6.64458 37.6019 7.06615L36.6223 6.88016C36.7133 6.2602 36.9902 5.76422 37.4531 5.39224C37.9243 5.02026 38.4905 4.83427 39.1518 4.83427ZM38.755 10.414C39.3585 10.414 39.8296 10.228 40.1685 9.856C40.5075 9.48402 40.6769 8.98391 40.6769 8.35568V8.0581L39.4618 8.19449C38.1805 8.33502 37.5399 8.74419 37.5399 9.42202C37.5399 9.71134 37.6515 9.95106 37.8747 10.1412C38.1061 10.323 38.3996 10.414 38.755 10.414Z" fill="white"/>
<path d="M44.3995 11.1827L42.1181 4.93347H43.1968L44.9327 9.95519L46.681 4.93347H47.7722L45.4783 11.1827H44.3995Z" fill="white"/>
<path d="M48.5197 2.40401H49.7349V3.74313H48.5197V2.40401ZM48.5941 11.1827V4.93347H49.6481V11.1827H48.5941Z" fill="white"/>
<path d="M53.7488 11.2819C52.8064 11.2819 52.0666 10.9843 51.5293 10.3892C51.0002 9.78574 50.7357 9.00871 50.7357 8.0581C50.7357 7.10748 51.0002 6.33459 51.5293 5.73942C52.0583 5.13599 52.794 4.83427 53.7364 4.83427C54.1497 4.83427 54.5423 4.9252 54.9143 5.10706C55.2945 5.28892 55.5839 5.52864 55.7822 5.82622V2.40401H56.8362V11.1827H55.7822V10.2776C55.6417 10.5669 55.3813 10.8066 55.0011 10.9967C54.6208 11.1869 54.2034 11.2819 53.7488 11.2819ZM52.3724 9.71961C52.7444 10.1329 53.2363 10.3396 53.848 10.3396C54.4597 10.3396 54.9515 10.1329 55.3235 9.71961C55.6955 9.29803 55.8814 8.74419 55.8814 8.0581C55.8814 7.372 55.6955 6.8223 55.3235 6.40899C54.9515 5.98741 54.4597 5.77662 53.848 5.77662C53.2363 5.77662 52.7444 5.98741 52.3724 6.40899C52.0005 6.8223 51.8145 7.372 51.8145 8.0581C51.8145 8.74419 52.0005 9.29803 52.3724 9.71961Z" fill="white"/>
<path d="M34.4162 14.5492H35.5446V23.2288H34.4162V19.1618H29.9153V23.2288H28.7869V14.5492H29.9153V18.145H34.4162V14.5492Z" fill="white"/>
<path d="M39.1518 16.8078C39.9206 16.8078 40.5405 17.0186 41.0117 17.4402C41.4829 17.8618 41.7185 18.4321 41.7185 19.1513V23.1563H40.6769V22.0899C40.4951 22.4454 40.214 22.7306 39.8338 22.9455C39.4618 23.1521 39.0485 23.2555 38.5938 23.2555C37.9739 23.2555 37.4655 23.086 37.0687 22.7471C36.6802 22.3999 36.4859 21.9535 36.4859 21.408C36.4859 20.2342 37.4779 19.5481 39.4618 19.3497L40.6769 19.2133V19.0893C40.6769 18.6595 40.5364 18.3205 40.2553 18.0726C39.9826 17.8163 39.6147 17.6882 39.1518 17.6882C38.722 17.6882 38.3665 17.808 38.0855 18.0478C37.8044 18.2875 37.6432 18.6181 37.6019 19.0397L36.6223 18.8537C36.7133 18.2337 36.9902 17.7378 37.4531 17.3658C37.9243 16.9938 38.4905 16.8078 39.1518 16.8078ZM38.755 22.3875C39.3585 22.3875 39.8296 22.2015 40.1685 21.8296C40.5075 21.4576 40.6769 20.9575 40.6769 20.3292V20.0316L39.4618 20.168C38.1805 20.3086 37.5399 20.7177 37.5399 21.3956C37.5399 21.6849 37.6515 21.9246 37.8747 22.1147C38.1061 22.2966 38.3996 22.3875 38.755 22.3875Z" fill="white"/>
<path d="M42.8206 23.1563V22.3503L46.6768 17.837H43.0438V16.907H48.0159V17.713L44.2093 22.2263H48.0407V23.1563H42.8206Z" fill="white"/>
</svg>
