<svg width="642" height="492" viewBox="0 0 642 492" fill="none" xmlns="http://www.w3.org/2000/svg">
<g filter="url(#filter0_f_224_14)">
<ellipse cx="321" cy="246" rx="158" ry="83" fill="#FFBC03"/>
</g>
<g filter="url(#filter1_f_224_14)">
<ellipse cx="321" cy="245.5" rx="78" ry="42.5" fill="#FFBC03"/>
</g>
<mask id="path-3-outside-1_224_14" maskUnits="userSpaceOnUse" x="56" y="203" width="562" height="62" fill="black">
<rect fill="white" x="56" y="203" width="562" height="62"/>
<path d="M109.07 226.289H95.3984C95.2161 224.885 94.8424 223.618 94.2773 222.488C93.7122 221.358 92.9648 220.392 92.0352 219.59C91.1055 218.788 90.0026 218.177 88.7266 217.758C87.4688 217.32 86.0742 217.102 84.543 217.102C81.8268 217.102 79.4844 217.767 77.5156 219.098C75.5651 220.428 74.0612 222.352 73.0039 224.867C71.9648 227.383 71.4453 230.427 71.4453 234C71.4453 237.719 71.974 240.836 73.0313 243.352C74.1068 245.849 75.6107 247.736 77.543 249.012C79.4935 250.27 81.7995 250.898 84.4609 250.898C85.9557 250.898 87.3138 250.707 88.5352 250.324C89.7747 249.941 90.8594 249.385 91.7891 248.656C92.737 247.909 93.5117 247.007 94.1133 245.949C94.7331 244.874 95.1615 243.661 95.3984 242.313L109.07 242.395C108.833 244.874 108.113 247.316 106.91 249.723C105.725 252.129 104.094 254.326 102.016 256.312C99.9375 258.281 97.4036 259.849 94.4141 261.016C91.4427 262.182 88.0339 262.766 84.1875 262.766C79.1198 262.766 74.5807 261.654 70.5703 259.43C66.5781 257.187 63.4245 253.924 61.1094 249.641C58.7943 245.357 57.6367 240.143 57.6367 234C57.6367 227.839 58.8125 222.616 61.1641 218.332C63.5156 214.048 66.6966 210.794 70.707 208.57C74.7174 206.346 79.2109 205.234 84.1875 205.234C87.5781 205.234 90.7135 205.708 93.5938 206.656C96.474 207.586 99.0078 208.953 101.195 210.758C103.383 212.544 105.16 214.741 106.527 217.348C107.895 219.954 108.742 222.935 109.07 226.289ZM116.815 262V206H130.351V228.477H152.417V206H165.925V262H152.417V239.496H130.351V262H116.815ZM186.528 262H171.981L190.876 206H208.896L227.79 262H213.243L200.091 220.109H199.653L186.528 262ZM184.587 239.961H214.993V250.242H184.587V239.961ZM233.819 262V206H247.354V251.008H270.651V262H233.819ZM277.658 262V206H291.193V251.008H314.49V262H277.658ZM321.497 262V206H360.544V216.992H335.032V228.477H358.548V239.496H335.032V251.008H360.544V262H321.497ZM416.681 206V262H405.196L382.911 229.68H382.556V262H369.021V206H380.669L402.708 238.266H403.173V206H416.681ZM461.941 224.293C461.632 223.145 461.176 222.133 460.574 221.258C459.973 220.365 459.234 219.608 458.359 218.988C457.484 218.368 456.482 217.904 455.352 217.594C454.221 217.266 452.982 217.102 451.633 217.102C448.917 217.102 446.565 217.758 444.578 219.07C442.609 220.383 441.087 222.297 440.012 224.812C438.936 227.31 438.398 230.345 438.398 233.918C438.398 237.509 438.918 240.572 439.957 243.105C440.996 245.639 442.5 247.572 444.469 248.902C446.438 250.233 448.826 250.898 451.633 250.898C454.112 250.898 456.208 250.497 457.922 249.695C459.654 248.875 460.966 247.717 461.859 246.223C462.753 244.728 463.199 242.969 463.199 240.945L465.715 241.246H452.098V231.375H476.242V238.785C476.242 243.798 475.176 248.091 473.043 251.664C470.928 255.237 468.012 257.98 464.293 259.895C460.592 261.809 456.336 262.766 451.523 262.766C446.182 262.766 441.488 261.608 437.441 259.293C433.395 256.978 430.241 253.678 427.98 249.395C425.72 245.092 424.59 239.988 424.59 234.082C424.59 229.488 425.273 225.414 426.641 221.859C428.008 218.286 429.913 215.26 432.355 212.781C434.816 210.302 437.66 208.424 440.887 207.148C444.132 205.872 447.622 205.234 451.359 205.234C454.604 205.234 457.621 205.699 460.41 206.629C463.217 207.559 465.697 208.871 467.848 210.566C470.017 212.262 471.776 214.276 473.125 216.609C474.474 218.943 475.313 221.504 475.641 224.293H461.941ZM484.22 262V206H523.267V216.992H497.755V228.477H521.271V239.496H497.755V251.008H523.267V262H484.22ZM558.622 228.859V239.141H532.7V228.859H558.622ZM578.002 206L588.229 223.691H588.666L599.002 206H614.15L597.252 234L614.697 262H599.166L588.666 244.117H588.229L577.729 262H562.307L579.67 234L562.744 206H578.002Z"/>
</mask>
<path d="M109.07 226.289H95.3984C95.2161 224.885 94.8424 223.618 94.2773 222.488C93.7122 221.358 92.9648 220.392 92.0352 219.59C91.1055 218.788 90.0026 218.177 88.7266 217.758C87.4688 217.32 86.0742 217.102 84.543 217.102C81.8268 217.102 79.4844 217.767 77.5156 219.098C75.5651 220.428 74.0612 222.352 73.0039 224.867C71.9648 227.383 71.4453 230.427 71.4453 234C71.4453 237.719 71.974 240.836 73.0313 243.352C74.1068 245.849 75.6107 247.736 77.543 249.012C79.4935 250.27 81.7995 250.898 84.4609 250.898C85.9557 250.898 87.3138 250.707 88.5352 250.324C89.7747 249.941 90.8594 249.385 91.7891 248.656C92.737 247.909 93.5117 247.007 94.1133 245.949C94.7331 244.874 95.1615 243.661 95.3984 242.313L109.07 242.395C108.833 244.874 108.113 247.316 106.91 249.723C105.725 252.129 104.094 254.326 102.016 256.312C99.9375 258.281 97.4036 259.849 94.4141 261.016C91.4427 262.182 88.0339 262.766 84.1875 262.766C79.1198 262.766 74.5807 261.654 70.5703 259.43C66.5781 257.187 63.4245 253.924 61.1094 249.641C58.7943 245.357 57.6367 240.143 57.6367 234C57.6367 227.839 58.8125 222.616 61.1641 218.332C63.5156 214.048 66.6966 210.794 70.707 208.57C74.7174 206.346 79.2109 205.234 84.1875 205.234C87.5781 205.234 90.7135 205.708 93.5938 206.656C96.474 207.586 99.0078 208.953 101.195 210.758C103.383 212.544 105.16 214.741 106.527 217.348C107.895 219.954 108.742 222.935 109.07 226.289ZM116.815 262V206H130.351V228.477H152.417V206H165.925V262H152.417V239.496H130.351V262H116.815ZM186.528 262H171.981L190.876 206H208.896L227.79 262H213.243L200.091 220.109H199.653L186.528 262ZM184.587 239.961H214.993V250.242H184.587V239.961ZM233.819 262V206H247.354V251.008H270.651V262H233.819ZM277.658 262V206H291.193V251.008H314.49V262H277.658ZM321.497 262V206H360.544V216.992H335.032V228.477H358.548V239.496H335.032V251.008H360.544V262H321.497ZM416.681 206V262H405.196L382.911 229.68H382.556V262H369.021V206H380.669L402.708 238.266H403.173V206H416.681ZM461.941 224.293C461.632 223.145 461.176 222.133 460.574 221.258C459.973 220.365 459.234 219.608 458.359 218.988C457.484 218.368 456.482 217.904 455.352 217.594C454.221 217.266 452.982 217.102 451.633 217.102C448.917 217.102 446.565 217.758 444.578 219.07C442.609 220.383 441.087 222.297 440.012 224.812C438.936 227.31 438.398 230.345 438.398 233.918C438.398 237.509 438.918 240.572 439.957 243.105C440.996 245.639 442.5 247.572 444.469 248.902C446.438 250.233 448.826 250.898 451.633 250.898C454.112 250.898 456.208 250.497 457.922 249.695C459.654 248.875 460.966 247.717 461.859 246.223C462.753 244.728 463.199 242.969 463.199 240.945L465.715 241.246H452.098V231.375H476.242V238.785C476.242 243.798 475.176 248.091 473.043 251.664C470.928 255.237 468.012 257.98 464.293 259.895C460.592 261.809 456.336 262.766 451.523 262.766C446.182 262.766 441.488 261.608 437.441 259.293C433.395 256.978 430.241 253.678 427.98 249.395C425.72 245.092 424.59 239.988 424.59 234.082C424.59 229.488 425.273 225.414 426.641 221.859C428.008 218.286 429.913 215.26 432.355 212.781C434.816 210.302 437.66 208.424 440.887 207.148C444.132 205.872 447.622 205.234 451.359 205.234C454.604 205.234 457.621 205.699 460.41 206.629C463.217 207.559 465.697 208.871 467.848 210.566C470.017 212.262 471.776 214.276 473.125 216.609C474.474 218.943 475.313 221.504 475.641 224.293H461.941ZM484.22 262V206H523.267V216.992H497.755V228.477H521.271V239.496H497.755V251.008H523.267V262H484.22ZM558.622 228.859V239.141H532.7V228.859H558.622ZM578.002 206L588.229 223.691H588.666L599.002 206H614.15L597.252 234L614.697 262H599.166L588.666 244.117H588.229L577.729 262H562.307L579.67 234L562.744 206H578.002Z" fill="white"/>
<path d="M109.07 226.289V227.789H110.724L110.563 226.143L109.07 226.289ZM95.3984 226.289L93.9109 226.482L94.0806 227.789H95.3984V226.289ZM94.2773 222.488L92.9357 223.159L92.9357 223.159L94.2773 222.488ZM92.0352 219.59L93.015 218.454L93.015 218.454L92.0352 219.59ZM88.7266 217.758L88.2338 219.175L88.246 219.179L88.2583 219.183L88.7266 217.758ZM77.5156 219.098L76.6756 217.855L76.6703 217.859L77.5156 219.098ZM73.0039 224.867L71.6211 224.286L71.6175 224.295L73.0039 224.867ZM73.0313 243.352L71.6484 243.933L71.6536 243.945L73.0313 243.352ZM77.543 249.012L76.7164 250.263L76.7232 250.268L76.73 250.272L77.543 249.012ZM88.5352 250.324L88.0925 248.891L88.0865 248.893L88.5352 250.324ZM91.7891 248.656L92.7148 249.837L92.7178 249.834L91.7891 248.656ZM94.1133 245.949L92.8136 245.2L92.8095 245.207L94.1133 245.949ZM95.3984 242.313L95.4074 240.813L94.1403 240.805L93.9211 242.053L95.3984 242.313ZM109.07 242.395L110.564 242.537L110.72 240.904L109.079 240.895L109.07 242.395ZM106.91 249.723L105.568 249.052L105.564 249.06L106.91 249.723ZM102.016 256.312L103.047 257.401L103.052 257.397L102.016 256.312ZM94.4141 261.016L93.8688 259.618L93.8659 259.619L94.4141 261.016ZM70.5703 259.43L69.8358 260.738L69.8429 260.741L70.5703 259.43ZM61.1094 249.641L62.429 248.927L61.1094 249.641ZM61.1641 218.332L59.8491 217.61L59.8491 217.61L61.1641 218.332ZM93.5938 206.656L93.1248 208.081L93.133 208.084L93.5938 206.656ZM101.195 210.758L100.241 211.915L100.247 211.92L101.195 210.758ZM109.07 224.789H95.3984V227.789H109.07V224.789ZM96.8859 226.096C96.6846 224.546 96.2675 223.114 95.619 221.817L92.9357 223.159C93.4174 224.123 93.7477 225.225 93.9109 226.482L96.8859 226.096ZM95.619 221.817C94.9678 220.515 94.0992 219.39 93.015 218.454L91.0553 220.726C91.8304 221.394 92.4566 222.201 92.9357 223.159L95.619 221.817ZM93.015 218.454C91.922 217.511 90.641 216.808 89.1948 216.333L88.2583 219.183C89.3642 219.546 90.2889 220.064 91.0553 220.726L93.015 218.454ZM89.2193 216.341C87.7813 215.841 86.2173 215.602 84.543 215.602V218.602C85.9312 218.602 87.1562 218.8 88.2338 219.175L89.2193 216.341ZM84.543 215.602C81.5716 215.602 78.9267 216.333 76.6756 217.855L78.3556 220.34C80.0421 219.2 82.0821 218.602 84.543 218.602V215.602ZM76.6703 217.859C74.4455 219.376 72.7725 221.546 71.6211 224.286L74.3867 225.448C75.3499 223.157 76.6847 221.48 78.361 220.337L76.6703 217.859ZM71.6175 224.295C70.484 227.039 69.9453 230.289 69.9453 234H72.9453C72.9453 230.565 73.4457 227.727 74.3903 225.44L71.6175 224.295ZM69.9453 234C69.9453 237.85 70.4912 241.179 71.6484 243.933L74.4141 242.77C73.4567 240.492 72.9453 237.587 72.9453 234H69.9453ZM71.6536 243.945C72.8242 246.663 74.5001 248.8 76.7164 250.263L78.3696 247.76C76.7212 246.671 75.3894 245.035 74.4089 242.758L71.6536 243.945ZM76.73 250.272C78.957 251.708 81.5545 252.398 84.4609 252.398V249.398C82.0444 249.398 80.03 248.831 78.3559 247.751L76.73 250.272ZM84.4609 252.398C86.083 252.398 87.5952 252.191 88.9838 251.756L88.0865 248.893C87.0324 249.223 85.8285 249.398 84.4609 249.398V252.398ZM88.9778 251.757C90.3753 251.326 91.6274 250.689 92.7148 249.837L90.8634 247.476C90.0914 248.081 89.1742 248.557 88.0925 248.891L88.9778 251.757ZM92.7178 249.834C93.8189 248.966 94.7205 247.915 95.417 246.691L92.8095 245.207C92.3029 246.098 91.6551 246.852 90.8603 247.478L92.7178 249.834ZM95.4129 246.698C96.1286 245.456 96.6117 244.076 96.8758 242.572L93.9211 242.053C93.7112 243.247 93.3375 244.291 92.8136 245.2L95.4129 246.698ZM95.3894 243.812L109.061 243.895L109.079 240.895L95.4074 240.813L95.3894 243.812ZM107.577 242.252C107.359 244.533 106.696 246.797 105.569 249.052L108.252 250.393C109.531 247.835 110.308 245.215 110.564 242.537L107.577 242.252ZM105.564 249.06C104.463 251.298 102.939 253.354 100.979 255.228L103.052 257.397C105.248 255.297 106.988 252.96 108.256 250.385L105.564 249.06ZM100.984 255.224C99.0626 257.044 96.6996 258.514 93.8688 259.618L94.9594 262.413C98.1077 261.184 100.812 259.519 103.047 257.401L100.984 255.224ZM93.8659 259.619C91.1009 260.705 87.8837 261.266 84.1875 261.266V264.266C88.184 264.266 91.7845 263.66 94.9623 262.412L93.8659 259.619ZM84.1875 261.266C79.347 261.266 75.0628 260.206 71.2978 258.118L69.8429 260.741C74.0986 263.101 78.8926 264.266 84.1875 264.266V261.266ZM71.3049 258.122C67.5759 256.028 64.6182 252.978 62.429 248.927L59.7898 250.354C62.2308 254.871 65.5803 258.347 69.8358 260.738L71.3049 258.122ZM62.429 248.927C60.2593 244.913 59.1367 239.958 59.1367 234H56.1367C56.1367 240.328 57.3292 245.801 59.7898 250.354L62.429 248.927ZM59.1367 234C59.1367 228.026 60.2765 223.066 62.479 219.054L59.8491 217.61C57.3485 222.166 56.1367 227.651 56.1367 234H59.1367ZM62.479 219.054C64.7037 215.001 67.6881 211.96 71.4345 209.882L69.9796 207.259C65.7051 209.629 62.3276 213.095 59.8491 217.61L62.479 219.054ZM71.4345 209.882C75.2036 207.792 79.4432 206.734 84.1875 206.734V203.734C78.9787 203.734 74.2313 204.901 69.9796 207.259L71.4345 209.882ZM84.1875 206.734C87.4374 206.734 90.4127 207.188 93.1248 208.081L94.0627 205.231C91.0144 204.228 87.7188 203.734 84.1875 203.734V206.734ZM93.133 208.084C95.8452 208.959 98.2089 210.239 100.241 211.915L102.15 209.601C99.8067 207.668 97.1027 206.213 94.0545 205.229L93.133 208.084ZM100.247 211.92C102.271 213.573 103.922 215.609 105.199 218.044L107.856 216.651C106.399 213.873 104.495 211.516 102.144 209.596L100.247 211.92ZM105.199 218.044C106.464 220.457 107.265 223.246 107.577 226.435L110.563 226.143C110.219 222.624 109.325 219.452 107.856 216.651L105.199 218.044ZM116.815 262H115.315V263.5H116.815V262ZM116.815 206V204.5H115.315V206H116.815ZM130.351 206H131.851V204.5H130.351V206ZM130.351 228.477H128.851V229.977H130.351V228.477ZM152.417 228.477V229.977H153.917V228.477H152.417ZM152.417 206V204.5H150.917V206H152.417ZM165.925 206H167.425V204.5H165.925V206ZM165.925 262V263.5H167.425V262H165.925ZM152.417 262H150.917V263.5H152.417V262ZM152.417 239.496H153.917V237.996H152.417V239.496ZM130.351 239.496V237.996H128.851V239.496H130.351ZM130.351 262V263.5H131.851V262H130.351ZM118.315 262V206H115.315V262H118.315ZM116.815 207.5H130.351V204.5H116.815V207.5ZM128.851 206V228.477H131.851V206H128.851ZM130.351 229.977H152.417V226.977H130.351V229.977ZM153.917 228.477V206H150.917V228.477H153.917ZM152.417 207.5H165.925V204.5H152.417V207.5ZM164.425 206V262H167.425V206H164.425ZM165.925 260.5H152.417V263.5H165.925V260.5ZM153.917 262V239.496H150.917V262H153.917ZM152.417 237.996H130.351V240.996H152.417V237.996ZM128.851 239.496V262H131.851V239.496H128.851ZM130.351 260.5H116.815V263.5H130.351V260.5ZM186.528 262V263.5H187.63L187.96 262.448L186.528 262ZM171.981 262L170.56 261.52L169.892 263.5H171.981V262ZM190.876 206V204.5H189.799L189.455 205.52L190.876 206ZM208.896 206L210.317 205.52L209.972 204.5H208.896V206ZM227.79 262V263.5H229.879L229.211 261.52L227.79 262ZM213.243 262L211.812 262.449L212.142 263.5H213.243V262ZM200.091 220.109L201.522 219.66L201.192 218.609H200.091V220.109ZM199.653 220.109V218.609H198.551L198.222 219.661L199.653 220.109ZM184.587 239.961V238.461H183.087V239.961H184.587ZM214.993 239.961H216.493V238.461H214.993V239.961ZM214.993 250.242V251.742H216.493V250.242H214.993ZM184.587 250.242H183.087V251.742H184.587V250.242ZM186.528 260.5H171.981V263.5H186.528V260.5ZM173.403 262.48L192.297 206.48L189.455 205.52L170.56 261.52L173.403 262.48ZM190.876 207.5H208.896V204.5H190.876V207.5ZM207.474 206.48L226.369 262.48L229.211 261.52L210.317 205.52L207.474 206.48ZM227.79 260.5H213.243V263.5H227.79V260.5ZM214.674 261.551L201.522 219.66L198.66 220.559L211.812 262.449L214.674 261.551ZM200.091 218.609H199.653V221.609H200.091V218.609ZM198.222 219.661L185.097 261.552L187.96 262.448L201.085 220.558L198.222 219.661ZM184.587 241.461H214.993V238.461H184.587V241.461ZM213.493 239.961V250.242H216.493V239.961H213.493ZM214.993 248.742H184.587V251.742H214.993V248.742ZM186.087 250.242V239.961H183.087V250.242H186.087ZM233.819 262H232.319V263.5H233.819V262ZM233.819 206V204.5H232.319V206H233.819ZM247.354 206H248.854V204.5H247.354V206ZM247.354 251.008H245.854V252.508H247.354V251.008ZM270.651 251.008H272.151V249.508H270.651V251.008ZM270.651 262V263.5H272.151V262H270.651ZM235.319 262V206H232.319V262H235.319ZM233.819 207.5H247.354V204.5H233.819V207.5ZM245.854 206V251.008H248.854V206H245.854ZM247.354 252.508H270.651V249.508H247.354V252.508ZM269.151 251.008V262H272.151V251.008H269.151ZM270.651 260.5H233.819V263.5H270.651V260.5ZM277.658 262H276.158V263.5H277.658V262ZM277.658 206V204.5H276.158V206H277.658ZM291.193 206H292.693V204.5H291.193V206ZM291.193 251.008H289.693V252.508H291.193V251.008ZM314.49 251.008H315.99V249.508H314.49V251.008ZM314.49 262V263.5H315.99V262H314.49ZM279.158 262V206H276.158V262H279.158ZM277.658 207.5H291.193V204.5H277.658V207.5ZM289.693 206V251.008H292.693V206H289.693ZM291.193 252.508H314.49V249.508H291.193V252.508ZM312.99 251.008V262H315.99V251.008H312.99ZM314.49 260.5H277.658V263.5H314.49V260.5ZM321.497 262H319.997V263.5H321.497V262ZM321.497 206V204.5H319.997V206H321.497ZM360.544 206H362.044V204.5H360.544V206ZM360.544 216.992V218.492H362.044V216.992H360.544ZM335.032 216.992V215.492H333.532V216.992H335.032ZM335.032 228.477H333.532V229.977H335.032V228.477ZM358.548 228.477H360.048V226.977H358.548V228.477ZM358.548 239.496V240.996H360.048V239.496H358.548ZM335.032 239.496V237.996H333.532V239.496H335.032ZM335.032 251.008H333.532V252.508H335.032V251.008ZM360.544 251.008H362.044V249.508H360.544V251.008ZM360.544 262V263.5H362.044V262H360.544ZM322.997 262V206H319.997V262H322.997ZM321.497 207.5H360.544V204.5H321.497V207.5ZM359.044 206V216.992H362.044V206H359.044ZM360.544 215.492H335.032V218.492H360.544V215.492ZM333.532 216.992V228.477H336.532V216.992H333.532ZM335.032 229.977H358.548V226.977H335.032V229.977ZM357.048 228.477V239.496H360.048V228.477H357.048ZM358.548 237.996H335.032V240.996H358.548V237.996ZM333.532 239.496V251.008H336.532V239.496H333.532ZM335.032 252.508H360.544V249.508H335.032V252.508ZM359.044 251.008V262H362.044V251.008H359.044ZM360.544 260.5H321.497V263.5H360.544V260.5ZM416.681 206H418.181V204.5H416.681V206ZM416.681 262V263.5H418.181V262H416.681ZM405.196 262L403.961 262.851L404.409 263.5H405.196V262ZM382.911 229.68L384.146 228.828L383.699 228.18H382.911V229.68ZM382.556 229.68V228.18H381.056V229.68H382.556ZM382.556 262V263.5H384.056V262H382.556ZM369.021 262H367.521V263.5H369.021V262ZM369.021 206V204.5H367.521V206H369.021ZM380.669 206L381.908 205.154L381.461 204.5H380.669V206ZM402.708 238.266L401.469 239.112L401.916 239.766H402.708V238.266ZM403.173 238.266V239.766H404.673V238.266H403.173ZM403.173 206V204.5H401.673V206H403.173ZM415.181 206V262H418.181V206H415.181ZM416.681 260.5H405.196V263.5H416.681V260.5ZM406.431 261.149L384.146 228.828L381.676 230.531L403.961 262.851L406.431 261.149ZM382.911 228.18H382.556V231.18H382.911V228.18ZM381.056 229.68V262H384.056V229.68H381.056ZM382.556 260.5H369.021V263.5H382.556V260.5ZM370.521 262V206H367.521V262H370.521ZM369.021 207.5H380.669V204.5H369.021V207.5ZM379.43 206.846L401.469 239.112L403.947 237.42L381.908 205.154L379.43 206.846ZM402.708 239.766H403.173V236.766H402.708V239.766ZM404.673 238.266V206H401.673V238.266H404.673ZM403.173 207.5H416.681V204.5H403.173V207.5ZM461.941 224.293L460.493 224.684L460.793 225.793H461.941V224.293ZM460.574 221.258L459.33 222.096L459.334 222.102L459.338 222.108L460.574 221.258ZM455.352 217.594L454.933 219.034L454.944 219.037L454.955 219.04L455.352 217.594ZM444.578 219.07L443.751 217.819L443.746 217.822L444.578 219.07ZM440.012 224.812L441.389 225.406L441.391 225.402L440.012 224.812ZM439.957 243.105L441.345 242.536L441.345 242.536L439.957 243.105ZM444.469 248.902L445.309 247.66L445.309 247.66L444.469 248.902ZM457.922 249.695L458.558 251.054L458.564 251.051L457.922 249.695ZM461.859 246.223L460.572 245.453L460.572 245.453L461.859 246.223ZM463.199 240.945L463.377 239.456L461.699 239.255V240.945H463.199ZM465.715 241.246V242.746L465.893 239.757L465.715 241.246ZM452.098 241.246H450.598V242.746H452.098V241.246ZM452.098 231.375V229.875H450.598V231.375H452.098ZM476.242 231.375H477.742V229.875H476.242V231.375ZM473.043 251.664L471.755 250.895L471.752 250.9L473.043 251.664ZM464.293 259.895L463.607 258.561L463.604 258.562L464.293 259.895ZM437.441 259.293L438.186 257.991L438.186 257.991L437.441 259.293ZM427.98 249.395L426.653 250.092L426.654 250.095L427.98 249.395ZM426.641 221.859L428.041 222.398L428.042 222.395L426.641 221.859ZM432.355 212.781L431.291 211.725L431.287 211.728L432.355 212.781ZM440.887 207.148L440.338 205.752L440.335 205.754L440.887 207.148ZM460.41 206.629L459.936 208.052L459.939 208.053L460.41 206.629ZM467.848 210.566L466.919 211.745L466.924 211.748L467.848 210.566ZM473.125 216.609L471.826 217.36L471.826 217.36L473.125 216.609ZM475.641 224.293V225.793H477.327L477.13 224.118L475.641 224.293ZM463.39 223.902C463.041 222.609 462.519 221.439 461.81 220.408L459.338 222.108C459.833 222.827 460.222 223.68 460.493 224.684L463.39 223.902ZM461.818 220.42C461.116 219.377 460.25 218.489 459.226 217.764L457.492 220.212C458.219 220.727 458.829 221.352 459.33 222.096L461.818 220.42ZM459.226 217.764C458.196 217.034 457.031 216.499 455.748 216.147L454.955 219.04C455.932 219.308 456.773 219.703 457.492 220.212L459.226 217.764ZM455.77 216.153C454.486 215.78 453.103 215.602 451.633 215.602V218.602C452.86 218.602 453.957 218.751 454.933 219.034L455.77 216.153ZM451.633 215.602C448.665 215.602 446.017 216.322 443.751 217.819L445.405 220.322C447.113 219.193 449.168 218.602 451.633 218.602V215.602ZM443.746 217.822C441.499 219.32 439.804 221.482 438.632 224.223L441.391 225.402C442.37 223.112 443.72 221.445 445.41 220.318L443.746 217.822ZM438.634 224.219C437.457 226.953 436.898 230.202 436.898 233.918H439.898C439.898 230.488 440.416 227.667 441.389 225.406L438.634 224.219ZM436.898 233.918C436.898 237.647 437.437 240.913 438.569 243.675L441.345 242.536C440.399 240.23 439.898 237.372 439.898 233.918H436.898ZM438.569 243.675C439.703 246.439 441.379 248.625 443.629 250.145L445.309 247.66C443.621 246.519 442.289 244.839 441.345 242.536L438.569 243.675ZM443.629 250.145C445.888 251.672 448.582 252.398 451.633 252.398V249.398C449.069 249.398 446.987 248.794 445.309 247.66L443.629 250.145ZM451.633 252.398C454.266 252.398 456.593 251.973 458.558 251.054L457.286 248.337C455.823 249.021 453.958 249.398 451.633 249.398V252.398ZM458.564 251.051C460.536 250.117 462.086 248.767 463.147 246.992L460.572 245.453C459.846 246.668 458.771 247.633 457.28 248.34L458.564 251.051ZM463.147 246.992C464.2 245.229 464.699 243.195 464.699 240.945H461.699C461.699 242.742 461.305 244.226 460.572 245.453L463.147 246.992ZM463.021 242.435L465.537 242.735L465.893 239.757L463.377 239.456L463.021 242.435ZM465.715 239.746H452.098V242.746H465.715V239.746ZM453.598 241.246V231.375H450.598V241.246H453.598ZM452.098 232.875H476.242V229.875H452.098V232.875ZM474.742 231.375V238.785H477.742V231.375H474.742ZM474.742 238.785C474.742 243.583 473.723 247.598 471.755 250.895L474.331 252.433C476.628 248.584 477.742 244.013 477.742 238.785H474.742ZM471.752 250.9C469.782 254.228 467.076 256.775 463.607 258.561L464.979 261.228C468.947 259.186 472.074 256.246 474.334 252.428L471.752 250.9ZM463.604 258.562C460.147 260.35 456.133 261.266 451.523 261.266V264.266C456.538 264.266 461.038 263.267 464.982 261.227L463.604 258.562ZM451.523 261.266C446.405 261.266 441.975 260.158 438.186 257.991L436.697 260.595C441.002 263.058 445.96 264.266 451.523 264.266V261.266ZM438.186 257.991C434.396 255.823 431.44 252.737 429.307 248.695L426.654 250.095C429.042 254.62 432.393 258.133 436.697 260.595L438.186 257.991ZM429.308 248.697C427.183 244.652 426.09 239.797 426.09 234.082H423.09C423.09 240.18 424.257 245.533 426.653 250.092L429.308 248.697ZM426.09 234.082C426.09 229.635 426.752 225.749 428.041 222.398L425.241 221.321C423.795 225.079 423.09 229.341 423.09 234.082H426.09ZM428.042 222.395C429.342 218.997 431.14 216.152 433.424 213.834L431.287 211.728C428.685 214.369 426.673 217.576 425.24 221.323L428.042 222.395ZM433.42 213.838C435.736 211.505 438.406 209.743 441.438 208.543L440.335 205.754C436.915 207.106 433.897 209.099 431.291 211.725L433.42 213.838ZM441.436 208.544C444.493 207.342 447.797 206.734 451.359 206.734V203.734C447.448 203.734 443.77 204.403 440.338 205.752L441.436 208.544ZM451.359 206.734C454.46 206.734 457.315 207.178 459.936 208.052L460.884 205.206C457.927 204.22 454.749 203.734 451.359 203.734V206.734ZM459.939 208.053C462.594 208.932 464.916 210.165 466.919 211.744L468.776 209.388C466.478 207.577 463.841 206.185 460.882 205.205L459.939 208.053ZM466.924 211.748C468.945 213.328 470.576 215.197 471.826 217.36L474.424 215.859C472.976 213.355 471.089 211.196 468.771 209.385L466.924 211.748ZM471.826 217.36C473.069 219.509 473.846 221.873 474.151 224.468L477.13 224.118C476.779 221.134 475.879 218.376 474.424 215.859L471.826 217.36ZM475.641 222.793H461.941V225.793H475.641V222.793ZM484.22 262H482.72V263.5H484.22V262ZM484.22 206V204.5H482.72V206H484.22ZM523.267 206H524.767V204.5H523.267V206ZM523.267 216.992V218.492H524.767V216.992H523.267ZM497.755 216.992V215.492H496.255V216.992H497.755ZM497.755 228.477H496.255V229.977H497.755V228.477ZM521.271 228.477H522.771V226.977H521.271V228.477ZM521.271 239.496V240.996H522.771V239.496H521.271ZM497.755 239.496V237.996H496.255V239.496H497.755ZM497.755 251.008H496.255V252.508H497.755V251.008ZM523.267 251.008H524.767V249.508H523.267V251.008ZM523.267 262V263.5H524.767V262H523.267ZM485.72 262V206H482.72V262H485.72ZM484.22 207.5H523.267V204.5H484.22V207.5ZM521.767 206V216.992H524.767V206H521.767ZM523.267 215.492H497.755V218.492H523.267V215.492ZM496.255 216.992V228.477H499.255V216.992H496.255ZM497.755 229.977H521.271V226.977H497.755V229.977ZM519.771 228.477V239.496H522.771V228.477H519.771ZM521.271 237.996H497.755V240.996H521.271V237.996ZM496.255 239.496V251.008H499.255V239.496H496.255ZM497.755 252.508H523.267V249.508H497.755V252.508ZM521.767 251.008V262H524.767V251.008H521.767ZM523.267 260.5H484.22V263.5H523.267V260.5ZM558.622 228.859H560.122V227.359H558.622V228.859ZM558.622 239.141V240.641H560.122V239.141H558.622ZM532.7 239.141H531.2V240.641H532.7V239.141ZM532.7 228.859V227.359H531.2V228.859H532.7ZM557.122 228.859V239.141H560.122V228.859H557.122ZM558.622 237.641H532.7V240.641H558.622V237.641ZM534.2 239.141V228.859H531.2V239.141H534.2ZM532.7 230.359H558.622V227.359H532.7V230.359ZM578.002 206L579.301 205.249L578.867 204.5H578.002V206ZM588.229 223.691L586.93 224.442L587.363 225.191H588.229V223.691ZM588.666 223.691V225.191H589.527L589.961 224.448L588.666 223.691ZM599.002 206V204.5H598.141L597.707 205.243L599.002 206ZM614.15 206L615.435 206.775L616.808 204.5H614.15V206ZM597.252 234L595.968 233.225L595.492 234.012L595.979 234.793L597.252 234ZM614.697 262V263.5H617.399L615.97 261.207L614.697 262ZM599.166 262L597.873 262.759L598.307 263.5H599.166V262ZM588.666 244.117L589.96 243.358L589.525 242.617H588.666V244.117ZM588.229 244.117V242.617H587.37L586.935 243.358L588.229 244.117ZM577.729 262V263.5H578.587L579.022 262.759L577.729 262ZM562.307 262L561.032 261.209L559.611 263.5H562.307V262ZM579.67 234L580.945 234.791L581.429 234.01L580.954 233.224L579.67 234ZM562.744 206V204.5H560.085L561.46 206.776L562.744 206ZM576.703 206.751L586.93 224.442L589.527 222.941L579.301 205.249L576.703 206.751ZM588.229 225.191H588.666V222.191H588.229V225.191ZM589.961 224.448L600.297 206.757L597.707 205.243L587.371 222.935L589.961 224.448ZM599.002 207.5H614.15V204.5H599.002V207.5ZM612.866 205.225L595.968 233.225L598.536 234.775L615.435 206.775L612.866 205.225ZM595.979 234.793L613.424 262.793L615.97 261.207L598.525 233.207L595.979 234.793ZM614.697 260.5H599.166V263.5H614.697V260.5ZM600.46 261.241L589.96 243.358L587.373 244.877L597.873 262.759L600.46 261.241ZM588.666 242.617H588.229V245.617H588.666V242.617ZM586.935 243.358L576.435 261.241L579.022 262.759L589.522 244.877L586.935 243.358ZM577.729 260.5H562.307V263.5H577.729V260.5ZM563.581 262.791L580.945 234.791L578.395 233.209L561.032 261.209L563.581 262.791ZM580.954 233.224L564.028 205.224L561.46 206.776L578.386 234.776L580.954 233.224ZM562.744 207.5H578.002V204.5H562.744V207.5Z" fill="#FFBC03" mask="url(#path-3-outside-1_224_14)"/>
<defs>
<filter id="filter0_f_224_14" x="0" y="0" width="642" height="492" filterUnits="userSpaceOnUse" color-interpolation-filters="sRGB">
<feFlood flood-opacity="0" result="BackgroundImageFix"/>
<feBlend mode="normal" in="SourceGraphic" in2="BackgroundImageFix" result="shape"/>
<feGaussianBlur stdDeviation="81.5" result="effect1_foregroundBlur_224_14"/>
</filter>
<filter id="filter1_f_224_14" x="183" y="143" width="276" height="205" filterUnits="userSpaceOnUse" color-interpolation-filters="sRGB">
<feFlood flood-opacity="0" result="BackgroundImageFix"/>
<feBlend mode="normal" in="SourceGraphic" in2="BackgroundImageFix" result="shape"/>
<feGaussianBlur stdDeviation="30" result="effect1_foregroundBlur_224_14"/>
</filter>
</defs>
</svg>
