<svg xmlns="http://www.w3.org/2000/svg" xmlns:xlink="http://www.w3.org/1999/xlink" width="500" zoomAndPan="magnify" viewBox="0 0 375 374.999991" height="500" preserveAspectRatio="xMidYMid meet" version="1.0"><defs><g/><clipPath id="d3c9782db2"><path d="M 57.003906 38.21875 L 318 38.21875 L 318 336.71875 L 57.003906 336.71875 Z M 57.003906 38.21875 " clip-rule="nonzero"/></clipPath></defs><g clip-path="url(#d3c9782db2)"><path fill="white" d="M 73.265625 179.503906 L 57.238281 179.503906 C 57.105469 182.148438 57.015625 184.832031 57.015625 187.519531 C 57.015625 190.203125 57.105469 192.847656 57.238281 195.53125 L 92.546875 195.53125 C 93.957031 215.742188 100.648438 234.542969 111.261719 250.523438 L 122.882812 238.902344 C 114.960938 226.089844 109.894531 211.339844 108.617188 195.53125 C 108.398438 192.890625 108.3125 190.203125 108.3125 187.519531 C 108.3125 184.789062 108.398438 182.148438 108.617188 179.503906 C 109.894531 163.65625 114.960938 148.90625 122.882812 136.09375 L 111.261719 124.46875 C 100.648438 140.453125 93.957031 159.253906 92.546875 179.503906 Z M 118.964844 288.167969 L 107.605469 299.527344 C 103.601562 295.960938 99.769531 292.21875 96.160156 288.300781 C 76.960938 267.300781 63.710938 240.882812 58.953125 211.558594 L 75.203125 211.558594 C 79.734375 236.433594 91.183594 258.933594 107.519531 276.941406 L 114.300781 270.160156 L 121.125 263.292969 L 132.484375 251.976562 C 136.003906 255.984375 139.878906 259.726562 143.972656 263.117188 C 154.980469 272.1875 168.015625 278.921875 182.234375 282.53125 L 182.234375 299 C 163.609375 294.992188 146.660156 286.40625 132.613281 274.519531 Z M 143.578125 187.519531 C 143.578125 190.203125 143.753906 192.890625 144.0625 195.53125 C 148.023438 226.351562 174.355469 250.214844 206.320312 250.214844 C 215.125 250.214844 223.535156 248.410156 231.152344 245.109375 L 243.171875 257.128906 C 232.164062 262.941406 219.617188 266.242188 206.320312 266.242188 C 165.503906 266.242188 131.953125 235.246094 127.949219 195.53125 C 127.683594 192.890625 127.550781 190.203125 127.550781 187.519531 C 127.550781 184.789062 127.683594 182.101562 127.949219 179.503906 C 131.953125 139.746094 165.503906 108.75 206.320312 108.75 C 219.617188 108.75 232.164062 112.054688 243.171875 117.867188 L 231.152344 129.886719 C 223.535156 126.582031 215.125 124.777344 206.320312 124.777344 C 174.355469 124.777344 148.023438 148.640625 144.0625 179.503906 C 143.753906 182.101562 143.578125 184.789062 143.578125 187.519531 Z M 256.730469 248.015625 L 245.328125 236.609375 C 249.511719 233.265625 253.253906 229.433594 256.511719 225.121094 L 267.914062 236.566406 L 281.609375 250.214844 L 317.976562 286.582031 C 314.410156 290.589844 310.667969 294.375 306.703125 297.988281 C 285.789062 317.007812 259.460938 330.128906 230.359375 334.839844 L 230.359375 318.59375 C 255.058594 314.101562 277.382812 302.742188 295.34375 286.628906 L 286.933594 278.21875 L 281.695312 273.023438 L 270.335938 261.664062 Z M 214.332031 285.175781 C 229.960938 283.898438 244.535156 278.964844 257.261719 271.21875 L 268.882812 282.839844 C 252.988281 293.277344 234.363281 299.835938 214.332031 301.246094 L 214.332031 336.554688 C 211.644531 336.730469 209.003906 336.777344 206.320312 336.777344 C 203.632812 336.777344 200.949219 336.730469 198.304688 336.554688 C 169.335938 335.058594 142.566406 325.242188 120.285156 309.523438 L 131.777344 297.988281 C 150.976562 310.976562 173.738281 319.078125 198.304688 320.53125 L 198.304688 285.175781 C 200.949219 285.394531 203.589844 285.484375 206.320312 285.484375 C 209.003906 285.484375 211.691406 285.394531 214.332031 285.175781 Z M 118.964844 86.871094 L 107.605469 75.511719 C 103.601562 79.03125 99.769531 82.773438 96.160156 86.738281 C 76.960938 107.695312 63.710938 134.15625 58.953125 163.433594 L 75.203125 163.433594 C 79.734375 138.558594 91.183594 116.058594 107.519531 98.050781 L 114.300781 104.832031 L 121.125 111.703125 L 132.484375 123.0625 C 136.003906 119.011719 139.878906 115.269531 143.972656 111.878906 C 154.980469 102.808594 168.015625 96.070312 182.234375 92.460938 L 182.234375 76.039062 C 163.609375 80.046875 146.660156 88.585938 132.613281 100.472656 L 126.625 94.53125 Z M 256.730469 126.980469 L 245.328125 138.382812 C 249.511719 141.730469 253.253906 145.605469 256.511719 149.875 L 317.976562 88.410156 C 314.410156 84.402344 310.667969 80.617188 306.703125 77.007812 C 285.789062 58.03125 259.460938 44.867188 230.359375 40.15625 L 230.359375 56.402344 C 255.058594 60.9375 277.382812 72.25 295.34375 88.367188 L 286.933594 96.777344 L 281.695312 101.972656 L 270.335938 113.332031 Z M 214.332031 89.820312 C 229.960938 91.097656 244.535156 96.027344 257.261719 103.777344 L 268.882812 92.152344 C 252.988281 81.71875 234.363281 75.15625 214.332031 73.75 L 214.332031 38.4375 C 211.644531 38.304688 209.003906 38.21875 206.320312 38.21875 C 203.632812 38.21875 200.949219 38.304688 198.304688 38.4375 C 169.335938 39.980469 142.566406 49.753906 120.285156 65.472656 L 131.777344 77.007812 C 150.976562 64.019531 173.738281 55.960938 198.304688 54.464844 L 198.304688 89.820312 C 200.949219 89.597656 203.589844 89.511719 206.320312 89.511719 C 209.003906 89.511719 211.691406 89.597656 214.332031 89.820312 Z M 214.332031 89.820312 " fill-opacity="1" fill-rule="evenodd"/></g></svg>